<svg viewBox="0 0 1024 1024" xmlns="http://www.w3.org/2000/svg" version="1.1">
<rect fill="#ABBAFF" x="0" y="0" width="1024" height="1024"/>
<path fill="#7F82FF" d="M524 489 c-40 -2 -123 31 -152 55,-29 24 -29 62 -49 84,-21 22 -53 31 -72 49,-20 18 -40 38 -48 58,-7 20 -5 47 -2 62,2 14 11 19 12 32,2 14 -7 38 -10 54,-2 15 -8 36 -4 41,4 5 12 5 20 1,7 -3 19 -35 30 -48,10 -13 18 -27 32 -32,13 -5 39 5 49 2,10 -3 14 -11 21 -14,8 -2 14 -1 25 0,11 1 36 10 55 11,18 1 35 -4 56 -5,21 -2 51 5 72 -2,20 -6 32 -19 54 -34,22 -14 52 -50 84 -61,33 -11 91 -5 113 -3,22 3 42 15 47 11,6 -4 6 -12 4 -19,-3 -8 -16 -18 -32 -30,-17 -11 -54 -24 -87 -48,-33 -25 -82 -87 -118 -112,-36 -26 -60 -49 -100 -52"/>
<path fill="#5754DF" d="M509 22 c-20 0 -44 4 -66 13,-21 9 -50 27 -64 43,-13 16 -19 33 -23 54,-4 21 -2 50 2 77,4 27 13 67 25 85,11 18 37 18 42 34,4 16 -14 39 -22 62,-7 23 -16 45 -25 81,-9 35 -27 109 -29 153,-2 44 6 110 12 118,6 8 13 11 19 7,6 -3 11 -48 15 -75,4 -27 5 -66 9 -89,4 -24 13 -59 15 -58,3 0 2 15 4 28,1 14 5 47 10 70,4 22 13 50 18 65,6 15 11 22 15 33,4 11 1 22 7 32,5 10 16 25 29 26,13 1 41 -16 53 -32,12 -17 15 -61 17 -69,2 -8 1 -10 3 -14,3 -4 4 -6 11 -9,7 -4 41 -16 63 -20,21 -4 47 3 66 -4,18 -8 29 -22 44 -39,15 -17 38 -45 47 -70,9 -25 9 -58 9 -81,-1 -22 -7 -49 -9 -58,-2 -10 -5 -18 -4 -19,1 -1 17 23 25 42,8 19 12 59 22 87,9 27 20 57 33 78,13 20 35 51 43 48,9 -2 12 -38 10 -62,-1 -23 -12 -51 -22 -80,-10 -28 -23 -59 -40 -90,-16 -30 -50 -74 -60 -95,-9 -21 -4 -32 -13 -49,-9 -16 -26 -33 -47 -52,-22 -18 -71 -38 -94 -58,-23 -21 -36 -49 -51 -64,-15 -16 -25 -28 -41 -36,-17 -9 -37 -13 -58 -13"/>
<path fill="#3D399D" d="M628 111 c0 0 -26 -40 -39 -53,-13 -13 -20 -21 -40 -27,-19 -5 -69 -2 -94 6,-24 8 -43 18 -58 38,-14 21 -19 56 -24 91,-4 35 2 92 0 121,-2 30 -6 51 -10 69,-3 18 -12 30 -12 43,1 14 9 39 15 40,6 0 19 -25 23 -33,3 -8 -2 -12 2 -21,5 -9 32 -38 44 -46,12 -8 23 -13 32 -12,10 0 27 14 27 14,0 0 6 -15 15 -27,8 -12 45 -53 52 -65,7 -11 7 -19 11 -24,4 -4 8 -5 13 -8,6 -3 17 -3 22 -10,5 -8 9 -33 3 -45,-6 -12 -27 -22 -44 -27,-17 -5 -48 -6 -59 -1,-12 5 -23 16 -22 25,0 9 31 25 32 31,1 6 -4 12 -8 15,-5 2 -12 -4 -18 -2,-5 3 -14 18 -16 23,-3 5 -2 10 -5 11,-3 1 -8 -8 -13 -8,-4 0 -8 4 -12 9,-4 5 -5 25 -10 27,-6 3 -15 0 -20 -6,-5 -6 -6 -22 -5 -39,1 -17 6 -50 15 -70,9 -20 21 -38 37 -53,16 -14 37 -30 58 -34,21 -4 49 3 67 11,17 8 41 37 41 37"/>
<path fill="#3D399D" d="M639 115 c1 0 50 20 73 34,23 15 56 39 67 53,12 14 17 32 19 37,2 6 5 10 4 11,-1 1 -7 -3 -13 -7,-6 -4 -21 -21 -34 -28,-12 -8 -30 -15 -43 -16,-13 -2 -36 5 -37 5,-1 0 0 0 -1 0,-1 0 -16 -23 -21 -33,-5 -9 -7 -17 -10 -26,-2 -9 -6 -27 -6 -28,1 -1 1 -1 2 -2"/>
<path fill="#3D399D" d="M417 358 c-2 3 -14 36 -22 65,-8 29 -21 90 -26 130,-6 41 -8 84 -7 113,1 29 6 68 9 72,3 4 5 6 8 4,3 -2 8 -42 11 -67,3 -26 5 -66 9 -90,3 -24 9 -51 13 -60,4 -9 10 -17 13 -16,2 0 -2 16 -2 26,1 11 2 27 6 38,4 10 10 24 17 26,7 1 19 -6 24 -15,5 -9 -1 -45 -1 -56,1 -11 0 -13 3 -25,3 -11 25 -45 25 -61,1 -16 -12 -36 -14 -41,-3 -5 -6 -6 -5 -8,1 -2 20 4 33 4,14 1 31 2 52 -4,20 -7 65 -37 81 -47,16 -10 21 -18 32 -24,11 -6 22 -13 31 -12,10 1 20 11 25 15,5 3 5 8 9 10,3 1 12 -4 14 -3,2 1 1 4 1 7,0 4 -3 17 0 25,3 8 12 18 18 23,6 6 13 4 18 11,5 7 6 50 9 50,2 0 6 -7 8 -14,1 -7 -3 -30 -5 -41,-2 -10 -6 -20 -6 -24,0 -5 2 -9 4 -9,2 0 20 31 29 53,9 21 17 54 25 79,8 25 16 54 26 73,10 19 31 45 31 45,0 0 -19 -38 -26 -55,-8 -17 -18 -42 -18 -47,0 -5 0 -8 2 -8,2 0 22 27 22 27,0 0 -7 -40 -16 -64,-8 -23 -24 -56 -36 -78,-12 -22 -29 -45 -35 -57,-6 -12 -13 -25 -11 -26,2 -1 15 10 23 18,8 8 27 36 29 35,1 0 -4 -10 -8 -19,-4 -9 -23 -45 -27 -53,-4 -8 -4 -15 -7 -16,-2 -2 -5 -2 -8 0,-4 1 -13 10 -16 15,-2 5 -1 10 0 15,1 5 8 11 7 16,-1 5 -7 12 -12 14,-5 2 -17 1 -21 -4,-3 -5 6 -23 3 -32,-3 -9 -10 -19 -19 -23,-8 -4 -22 -3 -35 2,-13 5 -32 24 -47 34,-16 10 -30 18 -46 28,-15 10 -32 22 -49 30,-17 8 -39 16 -52 18,-13 2 -25 1 -33 -3,-8 -4 -12 -15 -17 -18,-5 -2 -9 -2 -13 -2,-4 1 -6 7 -10 7,-4 0 -12 -10 -14 -10,-3 0 -3 1 -6 4"/>
<path fill="#3D399D" d="M733 435 c-1 3 11 9 12 14,1 4 -5 9 -4 14,0 5 6 14 10 15,3 1 8 -1 11 -4,3 -3 2 -11 5 -15,2 -4 10 -6 12 -10,2 -4 2 -11 0 -14,-3 -3 -11 -4 -14 -3,-3 1 -3 6 -6 7,-3 0 -15 -9 -19 -9,-4 0 -7 3 -7 5"/>
<path fill="#3D399D" d="M433 624 c0 0 10 35 19 55,9 19 29 59 38 65,9 6 14 6 23 5,9 -1 25 -10 33 -15,8 -5 17 -12 17 -14,-1 -2 -4 -3 -8 -3,-4 1 -16 13 -24 15,-9 2 -18 5 -28 0,-11 -5 -29 -28 -40 -46,-12 -18 -30 -62 -30 -62"/>
<path fill="#3D399D" d="M673 622 c0 0 21 -13 34 -19,14 -7 41 -19 48 -22,8 -3 16 -3 16 -4,0 -2 -6 -5 -11 -5,-5 0 -21 6 -31 10,-11 4 -22 9 -31 16,-9 7 -25 24 -25 24"/>
<path fill="#3D399D" d="M513 803 c0 0 -26 22 -34 36,-9 14 -15 31 -19 48,-4 16 -8 39 -7 53,2 14 8 33 11 36,3 3 4 3 9 2,4 -1 21 -17 35 -17,14 0 48 25 54 27,6 2 7 4 11 2,3 -2 7 -38 12 -50,6 -12 13 -23 18 -27,5 -5 11 -3 14 -8,2 -4 -1 -17 -4 -25,-2 -8 -3 -15 -10 -23,-6 -8 -19 -16 -34 -24,-14 -9 -56 -30 -56 -30"/>
<path fill="#3D399D" d="M689 683 c-13 12 -30 73 -30 82,0 8 2 13 6 15,5 2 16 -5 23 -4,7 1 13 7 21 13,8 5 20 20 28 24,7 3 12 5 19 2,7 -4 18 -32 25 -38,8 -6 14 -8 21 -8,7 -1 18 5 23 4,4 0 7 -1 9 -3,2 -2 2 -8 1 -13,-1 -4 -2 -7 -9 -14,-7 -8 -79 -70 -97 -73,-19 -3 -28 1 -40 13"/>
<path fill="#353089" d="M479 766 c-2 3 -2 34 -1 43,1 9 5 14 5 19,-1 5 -4 11 -4 11,0 0 15 2 26 2,10 0 31 -2 41 -4,10 -1 23 -4 23 -4,0 0 -5 -7 -8 -12,-2 -6 -6 -19 -9 -28,-3 -9 -9 -23 -10 -26,-1 -4 0 -5 -2 -6,-2 -2 -16 3 -25 4,-9 0 -27 -3 -30 -2,-4 0 -5 0 -6 3"/>
<path fill="#353089" d="M659 765 c0 0 5 -11 10 -18,5 -6 18 -16 24 -23,7 -7 9 -13 16 -18,6 -5 14 -11 23 -9,9 1 19 21 29 28,11 6 24 9 34 12,11 3 31 6 31 6,0 0 -4 -6 -7 -11,-4 -5 -14 -20 -24 -31,-9 -11 -26 -26 -32 -34,-7 -9 -11 -12 -14 -20,-2 -8 1 -25 0 -30,-2 -5 -3 -8 -8 -10,-5 -1 -28 8 -40 11,-13 3 -31 7 -36 9,-6 2 -8 2 -10 4,-2 3 -4 6 -4 10,1 4 9 10 12 17,4 7 8 20 8 27,1 7 0 11 -2 18,-3 6 -13 15 -15 23,-2 8 4 22 5 27,0 6 0 12 0 12"/>
<path fill="#282269" d="M600 72 c0 0 -18 -21 -31 -28,-14 -7 -31 -13 -52 -13,-21 0 -60 9 -80 20,-19 11 -32 28 -41 42,-9 14 -12 24 -15 41,-3 17 1 40 0 63,0 22 -6 69 -4 71,3 2 5 -5 10 -5,4 -1 16 5 21 8,5 3 8 9 12 10,4 0 5 -3 11 -5,6 -2 44 -14 48 -15,4 -2 6 -3 6 -2,1 0 -32 19 -40 26,-7 7 -9 10 -14 18,-6 8 -16 27 -20 34,-3 6 -6 11 -7 14,-1 2 -2 5 -1 6,1 0 14 -13 22 -19,9 -6 22 -11 32 -15,10 -5 17 -4 28 -11,12 -7 38 -29 49 -43,11 -14 11 -31 21 -42,10 -11 32 -18 39 -24,7 -6 12 -9 13 -16,1 -7 -6 -23 -14 -32,-9 -8 -29 -15 -42 -17,-14 -2 -32 0 -41 3,-9 4 -16 11 -18 14,-2 4 -1 6 1 10,3 5 30 21 31 24,1 4 -3 6 -5 8,-2 2 -5 1 -8 4,-3 3 -4 16 -10 22,-6 6 -20 12 -27 14,-7 2 -14 -1 -19 1,-4 2 -5 8 -9 12,-4 4 -11 14 -18 15,-7 2 -16 1 -21 -5,-6 -6 -9 -29 -8 -47,2 -19 16 -52 23 -66,7 -15 11 -20 19 -32,8 -13 19 -37 32 -46,12 -10 26 -12 40 -14,15 -3 34 -3 48 0,15 3 39 17 39 17"/>
<path fill="#282269" d="M496 205 c-3 1 -10 7 -13 11,-3 4 -7 10 -6 11,1 2 8 1 11 0,3 -2 7 -4 9 -7,3 -3 7 -9 6 -11,0 -2 -4 -4 -7 -4"/>
<path fill="#282269" d="M375 340 c-2 0 -8 13 -12 23,-4 11 -14 34 -14 46,1 12 11 29 14 30,3 1 4 -1 7 -4,3 -3 14 -34 18 -45,4 -11 7 -27 7 -27,0 0 -12 18 -16 16,-3 -1 0 -29 -1 -32,-1 -4 -2 -7 -3 -7"/>
<path fill="#282269" d="M645 130 c0 0 4 22 11 32,7 10 21 18 35 25,14 7 38 9 52 15,14 6 29 14 35 18,6 4 11 10 11 9,1 0 -12 -22 -21 -30,-9 -9 -23 -16 -35 -20,-12 -5 -31 -3 -36 -6,-5 -4 -8 -10 -7 -12,1 -3 22 2 23 -1,0 -3 -24 -15 -36 -20,-11 -5 -32 -10 -32 -10"/>
<path fill="#282269" d="M433 379 c-2 1 -5 2 -7 5,-2 3 0 21 -2 33,-2 11 -9 23 -14 38,-5 16 -15 35 -20 59,-5 24 -9 72 -9 88,-1 16 -1 32 2 33,2 1 5 -2 8 -6,2 -5 4 -26 6 -40,1 -15 1 -35 4 -48,2 -13 6 -26 9 -33,3 -7 8 -11 9 -16,2 -5 0 -13 1 -16,1 -3 1 -6 2 -7,1 0 5 1 6 4,1 2 -2 8 -3 16,-1 7 -4 23 -2 34,1 11 6 28 10 32,4 5 8 7 12 6,5 -1 11 -12 14 -18,4 -7 6 -14 6 -21,1 -7 -4 -14 -3 -22,1 -8 9 -21 13 -29,4 -7 9 -9 12 -18,2 -9 -2 -41 -6 -48,-4 -7 -11 -10 -14 -11,-3 -1 -5 -1 -6 1,-2 1 0 11 -2 13,-2 2 -5 2 -8 0,-3 -2 -11 -25 -13 -27,-2 -2 -3 -2 -5 -2"/>
<path fill="#282269" d="M843 387 c0 0 -18 -31 -27 -44,-9 -14 -23 -36 -25 -38,-3 -1 -4 -2 -6 -1,-1 1 1 12 2 21,2 8 3 18 9 32,6 15 37 67 39 70,3 4 4 6 6 6,1 -1 2 -7 1 -10,-1 -3 -4 -4 -6 -8,-2 -5 -5 -16 -9 -25,-4 -9 -16 -34 -16 -34,0 0 23 26 26 28,3 2 5 4 6 3"/>
</svg>
